<svg width="122" height="125" viewBox="0 0 122 125" fill="none" xmlns="http://www.w3.org/2000/svg">
<path d="M122 62.5C122 97.0178 94.6894 125 61 125C27.3106 125 0 97.0178 0 62.5C0 27.9822 27.3106 0 61 0C94.6894 0 122 27.9822 122 62.5Z" fill="white"/>
<path d="M82 52.4492L89.2748 56.7461C90.607 57.5336 92.2373 56.3695 91.8867 54.8972L89.9584 46.8169L96.3918 41.373C97.5663 40.3801 96.9352 38.4969 95.3926 38.3771L86.9258 37.6752L83.6127 30.04C83.0167 28.6533 80.9833 28.6533 80.3873 30.04L77.0742 37.6581L68.6074 38.36C67.0648 38.4798 66.4337 40.3629 67.6082 41.3559L74.0416 46.7998L72.1133 54.8801C71.7627 56.3524 73.393 57.5165 74.7252 56.729L82 52.4492Z" fill="#6E0BB6"/>
<path d="M29.5195 67.4077C29.5195 67.4077 45.877 57.3818 48.4501 57.0104C51.0231 56.6391 78.4081 66.2937 79.327 67.4077C80.246 68.5216 80.9758 69.8045 80.7974 71.4923C80.5651 73.6897 79.5108 75.0199 77.1215 75.7626C74.7323 76.5052 60.7641 71.4923 60.7641 71.4923M29.5195 67.4077L38.8929 85.9741M29.5195 67.4077L27.8654 64.437L15 70.5639L27.4978 96L40.3632 89.3161L38.8929 85.9741M38.8929 85.9741C38.8929 85.9741 41.2822 84.3031 42.7525 83.9318C44.2229 83.5605 69.0347 92.2867 71.9754 92.2867C74.916 92.2867 106.896 72.0493 107.447 70.5639C107.999 69.0786 108.349 67.2836 107.447 65.551C106.296 63.3411 103.771 62.209 101.75 62.766C99.7279 63.323 83.5543 74.6486 83.5543 74.6486" stroke="url(#paint0_linear_1_47)" stroke-width="5" stroke-linecap="round"/>
<defs>
<linearGradient id="paint0_linear_1_47" x1="61.5" y1="57" x2="61.5" y2="96" gradientUnits="userSpaceOnUse">
<stop stop-color="#F4BBA4"/>
<stop offset="1" stop-color="#E094D3"/>
</linearGradient>
</defs>
</svg>
