<svg width="122" height="125" viewBox="0 0 122 125" fill="none" xmlns="http://www.w3.org/2000/svg">
<path d="M122 62.5C122 97.0178 94.6894 125 61 125C27.3106 125 0 97.0178 0 62.5C0 27.9822 27.3106 0 61 0C94.6894 0 122 27.9822 122 62.5Z" fill="white"/>
<path d="M118 62C118 62 96.8125 36 61.5 36C26.1875 36 5 62 5 62C5 62 26.1875 88 61.5 88C96.8125 88 118 62 118 62ZM13.2843 62C16.6991 58.526 20.6268 55.2905 25.0081 52.3422C34.0975 46.2487 46.5275 40.7273 61.5 40.7273C76.4725 40.7273 88.8954 46.2487 97.999 52.3422C102.38 55.2905 106.308 58.526 109.723 62C109.313 62.4113 108.861 62.8651 108.346 63.3615C105.98 65.6305 102.484 68.656 97.999 71.6578C88.8954 77.7513 76.4654 83.2727 61.5 83.2727C46.5275 83.2727 34.1046 77.7513 25.001 71.6578C20.6197 68.7095 16.6992 65.4739 13.2843 62Z" fill="url(#paint0_linear_1_49)"/>
<circle cx="61" cy="62" r="5" fill="#6E0BB6"/>
<path d="M81 62.5C81 73.2696 72.0457 82 61 82C49.9543 82 41 73.2696 41 62.5C41 51.7304 49.9543 43 61 43C72.0457 43 81 51.7304 81 62.5ZM46.4476 62.5C46.4476 70.3361 52.9629 76.6886 61 76.6886C69.0371 76.6886 75.5524 70.3361 75.5524 62.5C75.5524 54.6639 69.0371 48.3114 61 48.3114C52.9629 48.3114 46.4476 54.6639 46.4476 62.5Z" fill="url(#paint1_linear_1_49)"/>
<line x1="61.5" y1="35" x2="61.5" y2="8" stroke="url(#paint2_linear_1_49)" stroke-width="5"/>
<line x1="80.8294" y1="36.7597" x2="92.8294" y2="15.7597" stroke="url(#paint3_linear_1_49)" stroke-width="5"/>
<line x1="42.8236" y1="36.2301" x2="29.8236" y2="13.2301" stroke="url(#paint4_linear_1_49)" stroke-width="5"/>
<defs>
<linearGradient id="paint0_linear_1_49" x1="61.5" y1="36" x2="61.5" y2="88" gradientUnits="userSpaceOnUse">
<stop stop-color="#F4BBA4"/>
<stop offset="1" stop-color="#E094D3"/>
</linearGradient>
<linearGradient id="paint1_linear_1_49" x1="61" y1="43" x2="61" y2="82" gradientUnits="userSpaceOnUse">
<stop stop-color="#F4BBA4"/>
<stop offset="1" stop-color="#E094D3"/>
</linearGradient>
<linearGradient id="paint2_linear_1_49" x1="63" y1="34" x2="61.5" y2="7" gradientUnits="userSpaceOnUse">
<stop offset="0.0162618" stop-color="#E094D3"/>
<stop offset="1" stop-color="#F4BBA4"/>
</linearGradient>
<linearGradient id="paint3_linear_1_49" x1="92.8505" y1="15.0565" x2="79.7342" y2="37.1898" gradientUnits="userSpaceOnUse">
<stop offset="0.0400287" stop-color="#F4BBA4"/>
<stop offset="1" stop-color="#E094D3"/>
</linearGradient>
<linearGradient id="paint4_linear_1_49" x1="30.5" y1="13" x2="45" y2="37" gradientUnits="userSpaceOnUse">
<stop stop-color="#F4BBA4"/>
<stop offset="1" stop-color="#E094D3"/>
</linearGradient>
</defs>
</svg>
